<?xml version="1.0" encoding="UTF-8"?> <!-- Generator: Adobe Illustrator 25.0.0, SVG Export Plug-In . SVG Version: 6.00 Build 0) --> <svg xmlns="http://www.w3.org/2000/svg" xmlns:xlink="http://www.w3.org/1999/xlink" version="1.1" id="LOGO_COLOR" x="0px" y="0px" viewBox="0 0 445.45 79.23" style="enable-background:new 0 0 445.45 79.23;" xml:space="preserve"> <style type="text/css"> .st0{fill:#091F6A;} .st1{fill:url(#SVGID_1_);} </style> <g id="NeuroFlow_Group_1_"> <g> <path class="st0" d="M123.51,33.32v27.92h-4.31V26.63h4.41l19.93,27.35V26.63h4.31v34.61h-4.15L123.51,33.32z"></path> <path class="st0" d="M155.94,26.63h22.68v3.84h-18.37v11.16h18.01v3.84h-18.01V57.4h18.37v3.84h-22.68V26.63z"></path> <path class="st0" d="M185.46,26.63h4.31V47.7c0,6.33,3.42,10.33,9.81,10.33c6.38,0,9.81-3.99,9.81-10.33V26.63h4.31v21.12 c0,8.61-4.72,14.11-14.11,14.11c-9.39,0-14.11-5.55-14.11-14.06V26.63z"></path> <path class="st0" d="M232.99,47.49h-6.9v13.75h-4.31V26.63h13.91c6.33,0,10.84,4.04,10.84,10.43c0,6.23-4.26,9.65-8.98,10.07 l9.34,14.11h-5.09L232.99,47.49z M235.17,30.47h-9.08v13.23h9.08c4.1,0,6.9-2.75,6.9-6.64C242.07,33.17,239.27,30.47,235.17,30.47 z"></path> <path class="st0" d="M269.11,26.06c10.22,0,17.17,7.68,17.17,17.9s-6.95,17.9-17.17,17.9c-10.27,0-17.17-7.68-17.17-17.9 S258.83,26.06,269.11,26.06z M269.11,29.9c-7.78,0-12.71,5.97-12.71,14.06c0,8.04,4.93,14.06,12.71,14.06 c7.73,0,12.71-6.02,12.71-14.06C281.82,35.87,276.84,29.9,269.11,29.9z"></path> <path class="st0" d="M292.66,26.63h23.72v5.35h-17.64v8.98h17.28v5.35h-17.28v14.94h-6.07L292.66,26.63L292.66,26.63z"></path> <path class="st0" d="M321.82,26.63h6.07V55.9h15.26v5.35h-21.33L321.82,26.63L321.82,26.63z"></path> <path class="st0" d="M363.23,26.06c10.38,0,17.7,7.58,17.7,17.9c0,10.33-7.32,17.9-17.7,17.9c-10.38,0-17.69-7.58-17.69-17.9 C345.54,33.64,352.85,26.06,363.23,26.06z M363.23,31.46c-7,0-11.47,5.34-11.47,12.5c0,7.11,4.46,12.5,11.47,12.5 c6.95,0,11.47-5.4,11.47-12.5C374.7,36.8,370.19,31.46,363.23,31.46z"></path> <path class="st0" d="M405.47,35.71l-6.7,25.53h-6.49l-9.91-34.61h6.8l6.75,26.68l7.16-26.68h4.82l7.16,26.68l6.7-26.68h6.8 l-9.86,34.61h-6.49L405.47,35.71z"></path> <path class="st0" d="M432.04,29.68c0-2.62,2.11-4.71,4.71-4.71c2.62,0,4.71,2.09,4.71,4.71c0,2.6-2.09,4.71-4.71,4.71 C434.15,34.39,432.04,32.28,432.04,29.68z M432.7,29.68c0,2.22,1.8,4.04,4.04,4.04c2.22,0,4.02-1.82,4.02-4.04 c0-2.25-1.8-4.02-4.02-4.02C434.5,25.66,432.7,27.44,432.7,29.68z M436.63,30.26h-0.96v2.13h-0.73V27h2.2 c0.91,0,1.74,0.64,1.74,1.64c0,1.2-1.07,1.6-1.38,1.6l1.45,2.16h-0.91L436.63,30.26z M435.68,27.64v1.96h1.47 c0.47,0,0.98-0.4,0.98-0.96c0-0.6-0.51-1-0.98-1H435.68z"></path> </g> <linearGradient id="SVGID_1_" gradientUnits="userSpaceOnUse" x1="168.4852" y1="-58.2741" x2="266.816" y2="40.0566" gradientTransform="matrix(0.5689 0 0 -0.5689 -69.7921 35.0779)"> <stop offset="0" style="stop-color:#091F6A"></stop> <stop offset="0.2165" style="stop-color:#2E4799"></stop> <stop offset="0.5627" style="stop-color:#0071D0"></stop> <stop offset="0.9007" style="stop-color:#4CB6AC"></stop> </linearGradient> <path class="st1" d="M26.16,14.57v38.18c0,1.97-1.6,3.58-3.58,3.58s-3.58-1.6-3.58-3.58V14.57c0-1.97,1.6-3.58,3.58-3.58 C24.56,10.98,26.16,12.59,26.16,14.57z M37.26,5.63c-1.97,0-3.58,1.6-3.58,3.58v48.45c0,1.97,1.6,3.58,3.58,3.58 s3.58-1.6,3.58-3.58V9.21C40.84,7.23,39.23,5.63,37.26,5.63z M7.91,26.3c-1.97,0-3.58,1.6-3.58,3.58v15.14 c0,1.97,1.6,3.58,3.58,3.58s3.58-1.6,3.58-3.58V29.88C11.48,27.91,9.88,26.3,7.91,26.3z M51.94,3.77c-1.97,0-3.58,1.6-3.58,3.58 v61.33c0,1.97,1.6,3.58,3.58,3.58s3.58-1.6,3.58-3.58V7.35C55.52,5.38,53.91,3.77,51.94,3.77z M95.98,29.85 c-1.97,0-3.58,1.6-3.58,3.58v22.02c0,1.97,1.6,3.58,3.58,3.58s3.58-1.6,3.58-3.58V33.43C99.55,31.46,97.95,29.85,95.98,29.85z M81.3,13.07c-1.97,0-3.58,1.6-3.58,3.58v52.58c0,1.97,1.6,3.58,3.58,3.58s3.58-1.6,3.58-3.58V16.65 C84.88,14.68,83.27,13.07,81.3,13.07z M66.62,6.01c-1.97,0-3.58,1.6-3.58,3.58v63c0,1.97,1.6,3.58,3.58,3.58s3.58-1.6,3.58-3.58 v-63C70.2,7.62,68.59,6.01,66.62,6.01z"></path> </g> </svg> 